# xmcd
#
# Track frame offsets:
#	150
#	14356
#	30215
#	56151
#	69627
#	88758
#	107890
#	123066
#	143818
#	155278
#	173230
#	189347
#
# Disc length: 2649 seconds
#
# Revision: 1
# Processed by: cddbd v1.5.2PL0 Copyright (c) Steve Scherf et al.
# Submitted via: audiograbber 1.83.01
#
DISCID=970a570c
DTITLE=Steve White - House of Bones
DYEAR=2001
DGENRE=Folk-Rock
TTITLE0=Drop Dowm Mama
TTITLE1=Highway 61 revisited
TTITLE2=House of Bones
TTITLE3=Hurry Evening
TTITLE4=Living Large in My Malibu
TTITLE5=Little Red Rooster
TTITLE6=Down with the Blues
TTITLE7=Delta Down
TTITLE8=Ol'Friend
TTITLE9=National Steel
TTITLE10=Move on Down
TTITLE11=Ain't Misbehavin
EXTD=
EXTT0=
EXTT1=
EXTT2=
EXTT3=
EXTT4=
EXTT5=
EXTT6=
EXTT7=
EXTT8=
EXTT9=
EXTT10=
EXTT11=
PLAYORDER=
